<svg xmlns="http://www.w3.org/2000/svg" width="133" height="122" viewBox="0 0 133 122">
  <g fill="none" fill-rule="evenodd" transform="translate(2)">
    <path fill="#419BF9" d="M66.6563609,121.741229 L55.3436391,121.741229 C24.3060333,118.887438 0,92.7822082 0,61 C0,27.3106303 27.3106303,0 61,0 C94.6893697,0 122,27.3106303 122,61 C122,92.7822082 97.6939667,118.887438 66.6563609,121.741229 Z" transform="translate(3)"/>
    <path stroke="#FFFFFF" stroke-width="6" d="M12.3648581,24.7373713 C12.5239944,25.1389434 16.3736071,32.203962 20.255102,32.5052712 C21.948686,32.6367392 31.0991019,21.2247819 39.4387755,21.0052712 C41.7252238,20.9450889 42.3336679,31.5855304 50.9489796,32.5052712 C52.7633909,32.6989714 63.6327412,21.1590483 68.6938776,21.0052712 C70.4312902,20.9524818 72.9634543,31.1886004 80.2040816,32.5052712 C82.9021595,32.9959027 92.4449216,21.5642334 98.4285714,21.0052712 C101.251254,20.7415905 104.580235,30.4489811 108.020408,32.5052712 C108.766548,32.95126 112.270559,28.8547031 115.835282,25.4282912"/>
    <path stroke="#FFFFFF" stroke-width="6" d="M1,71.5527082 C1,71.5527082 0.514362142,66.955204 6,67.0192234 C7.11567296,67.0322437 9.73175188,77.9550105 17,78.5192234 C24.2682481,79.0834364 33.6603264,67.2387342 42,67.0192234 C44.2864483,66.9590412 48.8846884,77.5994827 57.5,78.5192234 C59.3144113,78.7129237 75.9388636,67.1730006 81,67.0192234 C82.7374126,66.966434 90.7593726,77.2025527 98,78.5192234 C100.698078,79.009855 113.51635,67.5781857 119.5,67.0192234 C121.494452,66.8329118 123.695827,71.624717 126.029538,75.1781621 C126.998652,76.6537904 127.990586,77.9158678 129,78.5192234" transform="matrix(1 0 0 -1 0 145.553)"/>
    <path stroke="#FFFFFF" stroke-width="6" d="M1.06057767,53.0279062 C1.5484456,52.6485922 13.9286404,43.9653931 18,44.0052712 C24.5360791,44.0692906 26.3399597,52.935787 35,53.5 C43.6600403,54.064213 48.5633676,46.2195108 58.5,46 C68.4366324,45.7804892 69.3165269,55.3821306 82,55.5052712 C94.6834731,55.6284117 97.5,46 108,46 C115.528857,46 120.95292,51.16632 127.693854,53.8898373"/>
    <path stroke="#FFFFFF" stroke-width="6" d="M13.5,103.050324 C22.1600403,103.614537 28.5633676,95.2433053 38.5,95.0237945 C48.4366324,94.8042837 59.3165269,104.405925 72,104.529066 C84.6834731,104.652206 105.5,95.0237945 112,95.0237945" transform="matrix(1 0 0 -1 0 199.55)"/>
  </g>
</svg>
