<svg xmlns="http://www.w3.org/2000/svg" width="202" height="652" viewBox="0 0 202 652">
  <path fill="none" stroke="#000000" stroke-width="5" d="M2.5,648.5 L199,649 L199,611 L172.5,611 L172.5,536 L151.5,536 L151.5,488.5 L141,488.5 L142.5,266.5 L138.5,266.5 L138.5,223 L135.5,223 L135.5,194.5 L131.5,194.5 L131.5,181.5 L124.5,181.5 L124.5,172.5 L114.5,172.5 L114.5,159 L111.5,159 L111.5,105 L110.5,105 L109.5,103.5 L109.5,101 L107.5,101 L107.5,89.5 L106.5,89.5 L106.5,73 L105,73 L105,52 L103,52 L103,34.5 L100.5,0.5 L97.5,34.5 L97.5,52 L96,52 L96,73 L94.5,73 L94.5,89.5 L93.5,89.5 L93.5,101 L91.5,101 L91.5,103.5 L90.5,105 L89.5,105 L89.5,159 L86.5,159 L86.5,172.5 L76.5,172.5 L76.5,181.5 L69.5,181.5 L69.5,194.5 L65.5,194.5 L65.5,223 L62,223 L62,266.5 L58.5,266.5 L58.5,488.5 L48.5,488.5 L48.5,536 L30.5,536 L30.5,610.5 L2.5,611 L2.5,648.5 Z"/>
</svg>
